# xmcd
#
# Track frame offsets: 
#        150
#        21214
#        43563
#        63288
#        78249
#        97537
#        115309
#        142388
#        158898
#        181431
#        201927
#
# Disc length: 2981 seconds
#
# Revision: 0
# Processed by: cddbd v1.5.2PL0 Copyright (c) Steve Scherf et al.
# Submitted via: ExactAudioCopy v0.95b3
#
DISCID=8f0ba30b
DTITLE=Piano Has Been Drinking (Gerd Köster) - Der Märchenprinz
DYEAR=1992
DGENRE=Soul
TTITLE0=Alley Cat Blues (Ringo hängk am Drop)
TTITLE1=Ich rase op d'r Stell
TTITLE2=Der Märchenprinz
TTITLE3=Kopp in d'r Sand
TTITLE4=If She Only Knew
TTITLE5=Ei Mädche
TTITLE6=Saddam Alaaf
TTITLE7=Frisch uralt verknallt
TTITLE8=Merowinger Hop
TTITLE9=An un für sich is et Blues
TTITLE10=Ze vill Jepäck
EXTD=
EXTT0=
EXTT1=
EXTT2=
EXTT3=
EXTT4=
EXTT5=
EXTT6=
EXTT7=
EXTT8=
EXTT9=
EXTT10=
PLAYORDER=
